<?xml version="1.0" encoding="utf-8"?><svg width="163" height="44" viewBox="0 0 163 44" fill="none" xmlns="http://www.w3.org/2000/svg">
<g clip-path="url(#clip0_113_862)">
<path d="M6.81394 -0.000244141H156.372C159.828 -0.000244141 162.648 2.82028 162.648 6.27543V37.7243C162.648 41.1795 159.828 44 156.372 44H6.81394C3.3588 44 0.538269 41.1795 0.538269 37.7243V6.27543C0.538269 2.82028 3.3588 -0.000244141 6.81394 -0.000244141Z" fill="black"/>
<path d="M13.0896 12.4806C13.0896 9.09596 15.8396 6.34595 19.2242 6.34595H36.923C40.3077 6.34595 43.0577 9.09596 43.0577 12.4806V30.1794C43.0577 33.564 40.3077 36.3141 36.923 36.3141H19.2947C15.9101 36.3141 13.1601 33.564 13.1601 30.1794V12.4806H13.0896Z" fill="white"/>
<path fill-rule="evenodd" clip-rule="evenodd" d="M23.1025 11.4229V11.3524H23.8782V11.4229C23.8782 13.7498 25.782 15.6537 28.109 15.6537C30.4359 15.6537 32.3397 13.7498 32.3397 11.4229V11.3524H33.1154V11.4229C33.1154 14.1729 30.859 16.4293 28.109 16.4293C25.3589 16.4293 23.1025 14.2434 23.1025 11.4229ZM30.2949 24.1152L31.2115 21.3652H31.9167L32.8333 24.1152L33.75 21.3652H34.5962L33.1859 25.3845H32.4808L31.5641 22.7755L30.5769 25.3845H29.8718L28.4615 21.3652H29.3077L30.2949 24.1152ZM24.6538 25.3845L26.4166 21.3652H27.1218L28.8846 25.314H28.0384L27.6859 24.4678H25.923V24.5383L25.5 25.3845H24.6538ZM38.968 25.3845V21.3652H39.8141V25.3845H38.968ZM16.4038 25.3845V21.3652H17.2499V22.987H19.0128V21.3652H19.8589V25.3845H19.0128V23.7627H17.2499V25.3845H16.4038ZM23.5256 23.6922V21.4357H24.3718V23.6922C24.3718 24.8204 23.7371 25.5255 22.6089 25.5255C21.4807 25.5255 20.8461 24.8909 20.8461 23.7627V21.5063H21.6923V23.7627C21.6923 24.3973 22.0448 24.8204 22.6089 24.8204C23.173 24.6794 23.5256 24.3268 23.5256 23.6922ZM35.0898 25.3845V21.3652H38.0513V22.0704H35.8654V22.9165H37.3462V23.6217H35.8654V24.6088H38.1218V25.314H35.0898V25.3845ZM27.4038 23.6922L26.8397 22.3524L26.2756 23.6922L26.2051 23.7627H27.4743L27.4038 23.6922Z" fill="black"/>
<path fill-rule="evenodd" clip-rule="evenodd" d="M116.674 9.87163C116.674 12.4101 114.911 13.6793 112.866 13.6793C110.891 13.6793 109.411 12.4806 109.411 10.0127C109.411 7.54469 111.032 6.27545 113.007 6.27545C115.052 6.27545 116.674 7.33315 116.674 9.87163ZM115.263 10.0127C115.263 11.6345 114.488 12.6922 113.007 12.6922C111.526 12.6922 110.75 11.4934 110.75 10.0127C110.75 8.53187 111.456 7.33315 113.007 7.33315C114.558 7.26264 115.263 8.32034 115.263 10.0127ZM65.763 10.9998C67.2438 10.9998 68.513 10.2242 68.513 8.60239C68.513 6.98058 67.3143 6.34597 65.8335 6.34597C65.4809 6.34597 64.8463 6.34597 64.6348 6.34597H63.7181V13.6088H65.0579V10.8588C65.2694 10.9293 65.5514 10.9998 65.763 10.9998ZM65.0579 9.87163V7.40366H65.6925C66.7502 7.40366 67.1733 7.89726 67.1733 8.6729C67.1733 9.44855 66.6797 9.94214 65.6925 9.94214C65.4809 9.87163 65.2694 9.87163 65.0579 9.87163ZM87.34 8.32034C87.34 9.37803 86.7759 10.1537 86.0003 10.5062L88.0452 13.4678L88.1157 13.6088H86.5644L84.731 10.7883H83.9554V13.6088H82.6156V6.34597H83.6028C83.8849 6.34597 84.3785 6.34597 84.731 6.34597C86.2118 6.34597 87.34 6.69853 87.34 8.32034ZM83.9554 7.33315V9.66009H84.59C85.5772 9.66009 86.0708 9.09598 86.0708 8.32034C86.0708 7.54469 85.5772 7.33315 84.59 7.33315H83.9554ZM70.981 6.34597H69.6412V13.6088H70.981H73.8015L73.872 12.4806H70.981V6.34597ZM58.2886 6.34597H56.8783L59.1347 9.94214L56.7373 13.6088H58.1476L59.9104 10.7883L61.6027 13.6088H63.154L60.545 9.87163L62.8014 6.34597H61.3912L59.7694 8.95495L58.2886 6.34597ZM97.776 6.34597H99.1157V13.6088H97.776V6.34597ZM102.289 6.34597H103.629H105.885L105.744 7.47418H103.699V13.5383H102.359V7.47418H100.103L100.244 6.34597H102.289ZM93.3337 6.34597H89.2439H89.0323V13.6088H90.3721H93.1926L93.3337 12.4806H90.3016V10.4357H92.9811V9.44855H90.3016V7.6152H93.1221L93.3337 6.34597ZM52.1539 6.34597H56.2437L56.1027 7.47418H53.2822V9.30752H55.9617V10.2947H53.2822V12.3396H56.2437L56.1027 13.4678H53.2822H51.9424V6.34597H52.1539ZM122.738 6.34597H124.077V13.6088H123.936H122.808H122.667L119.283 8.1088V13.6088H117.943V6.34597H118.154H119.494L122.808 11.705V6.34597H122.738ZM77.5387 13.6793C79.5131 13.6793 81.3464 12.4101 81.3464 9.87163C81.3464 7.33315 79.7246 6.27545 77.7502 6.27545C75.7759 6.27545 74.1541 7.6152 74.1541 10.0127C74.1541 12.4101 75.5643 13.6793 77.5387 13.6793ZM77.6797 12.6922C79.1605 12.6922 79.9361 11.6345 79.9361 10.0127C79.9361 8.39085 79.231 7.33315 77.6797 7.33315C76.1284 7.33315 75.4233 8.53187 75.4233 10.0127C75.4938 11.4934 76.2695 12.6922 77.6797 12.6922ZM111.597 18.8268L113.994 18.6858V30.9551C113.994 30.9551 114.135 31.4487 114.417 31.6602C114.77 31.8717 115.545 31.6602 115.545 31.6602L115.827 33.3525C115.827 33.3525 114.347 33.8461 113.43 33.5641C112.866 33.423 112.513 33.282 112.09 32.8589C111.597 32.2948 111.597 30.9551 111.597 30.9551V18.8268ZM99.1862 26.5833V32.4359C99.1862 32.4359 96.2952 33.6346 94.2503 33.6346C90.4426 33.7051 87.34 31.2371 87.34 26.5833C87.34 24.1858 88.1862 22.4935 89.3849 21.2948C90.5131 20.1666 92.3465 19.3909 94.2503 19.3909C96.0132 19.2499 98.6927 20.3781 98.6927 20.3781L98.058 22.282C98.058 22.282 96.0837 21.2948 94.4619 21.3653C92.8401 21.5063 92.0644 21.7884 91.1477 22.705C90.09 23.7627 89.949 24.9615 89.8785 26.4422C89.808 27.923 90.09 29.0512 90.8657 30.1089C91.5708 31.0256 92.558 31.5897 94.0388 31.5897C95.4491 31.5897 96.8593 31.2371 96.8593 31.2371V28.4871H93.6157V26.5833H99.1862ZM57.4424 19.673H59.6283L65.1284 33.3525H62.5194L61.1796 29.7564H55.7501L54.4104 33.3525H51.8719L57.2309 19.673H57.4424ZM56.5258 27.782H60.4745L58.5001 22.4935L56.5258 27.782ZM75.4938 27.4999C75.4938 32.7884 72.6733 33.6346 70.6989 33.6346C69.7822 33.6346 69.0771 33.5641 68.5835 33.3525V37.5833L66.1861 37.7243V25.173L66.1156 23.1986H68.4425L68.513 24.3973C69.2887 23.5512 70.2758 22.9871 71.4746 22.9871C73.872 22.8461 75.4938 25.1025 75.4938 27.4999ZM68.513 31.5192C68.7951 31.6602 69.4297 31.8718 69.9233 31.8718C71.7566 31.8718 73.0259 31.2371 73.0259 27.8525C73.0259 26.3012 72.3912 24.8204 70.8399 24.9615C69.9938 25.032 69.1476 25.5256 68.5835 26.1602V31.5192H68.513ZM81.4169 33.6346C83.3913 33.6346 86.2118 32.7179 86.2118 27.4999C86.2118 25.173 84.59 22.8461 82.1926 23.0576C81.0644 23.0576 80.0067 23.6217 79.231 24.4679L79.1605 23.2691H76.8336L76.9041 25.173V37.7243L79.3015 37.5833V33.3525C79.8656 33.4936 80.5708 33.6346 81.4169 33.6346ZM80.7118 31.8718C80.2182 31.8718 79.5836 31.6602 79.3015 31.5192V26.0897C79.8656 25.3845 80.7118 24.8909 81.5579 24.8909C83.1092 24.8204 83.7439 26.2307 83.7439 27.782C83.8144 31.2371 82.5451 31.8718 80.7118 31.8718ZM105.109 28.6987C105.744 28.6987 106.661 28.6987 107.225 28.8397V30.673C106.52 31.3076 105.532 31.8718 104.898 31.8718C103.558 31.8718 103.135 31.3076 103.135 30.391C103.135 29.4743 103.84 28.7692 104.898 28.7692C104.968 28.6987 105.039 28.6987 105.109 28.6987ZM105.532 33.3525C106.238 33.0705 106.802 32.6474 107.295 32.1538L107.366 33.423H109.693L109.622 32.0833L109.693 26.9358C109.693 26.9358 109.834 23.6922 106.943 23.0576C104.052 22.423 101.654 23.6922 101.654 23.6922L102.007 25.455C102.007 25.455 104.263 24.4679 105.885 24.8204C107.366 25.173 107.366 27.0769 107.366 27.2884C106.59 27.2179 105.814 27.2179 105.109 27.2179C104.898 27.2179 104.686 27.2179 104.545 27.2179C103.699 27.2179 102.712 27.4999 101.936 28.064C101.302 28.6281 100.808 29.4038 100.808 30.4615C100.808 32.2948 102.289 33.6346 103.981 33.5641C104.404 33.5641 105.039 33.5641 105.532 33.3525ZM119.776 18.6858L117.379 18.8268V30.8846C117.379 30.8846 117.379 32.2243 117.872 32.7884C118.295 33.2115 118.648 33.3525 119.212 33.4936C120.129 33.7051 121.609 33.282 121.609 33.282L121.327 31.5897C121.327 31.5897 120.552 31.8012 120.199 31.5897C119.917 31.4487 119.776 30.8846 119.776 30.8846V18.6858ZM135.43 26.9358V33.3525H133.033V25.2435L132.962 23.1986H135.289L135.43 25.1025C135.642 24.7499 136.347 23.7627 136.981 23.3396C137.827 22.8461 139.238 23.1281 139.238 23.1281L138.956 25.314C138.956 25.314 138.392 24.9615 137.404 25.2435C136.488 25.314 135.712 26.5833 135.43 26.9358ZM147.699 23.1281H150.097L145.937 34.6218C145.937 34.6218 145.231 36.2436 144.315 36.8782C143.61 37.3718 143.045 37.5833 142.27 37.6538C141.283 37.7949 139.802 37.3718 139.802 37.3718L140.225 35.5384C140.225 35.5384 141.635 35.9615 142.481 35.5384C143.187 35.1859 143.751 34.0577 143.962 33.423L140.154 23.1281H142.693L144.808 29.4743L145.161 30.9551L147.699 23.1281ZM124.571 28.6281H131.129C131.129 28.6281 131.411 25.8076 130.142 24.4679C128.872 23.1281 128.026 22.9871 126.827 22.9871C125.699 22.9871 124.712 23.4102 123.866 24.0448C122.808 24.8909 122.103 26.3012 122.103 28.3461C122.103 30.2499 122.738 31.8012 123.795 32.6474C124.783 33.423 126.052 33.5641 127.251 33.5641C128.872 33.5641 130.988 32.7884 130.988 32.7884L130.424 31.1666C130.424 31.1666 127.251 32.5064 125.629 31.3076C124.642 30.391 124.571 28.6281 124.571 28.6281ZM124.642 27.0769H128.943C128.943 27.0769 129.013 24.6794 127.109 24.6794C125.488 24.6794 124.924 25.455 124.642 27.0769Z" fill="white"/>
</g>
<defs>
<clipPath id="clip0_113_862">
<rect width="162.11" height="44.0002" fill="white" transform="translate(0.538269 -0.000244141)"/>
</clipPath>
</defs>
</svg>
