<?xml version="1.0" encoding="utf-8"?><svg width="146" height="44" viewBox="0 0 146 44" fill="none" xmlns="http://www.w3.org/2000/svg">
<path d="M138.825 -0.000244141H6.21511C2.7826 -0.000244141 0 2.78236 0 6.21487V37.2906C0 40.7232 2.7826 43.5058 6.21511 43.5058H138.825C142.258 43.5058 145.04 40.7232 145.04 37.2906V6.21487C145.04 2.78236 142.258 -0.000244141 138.825 -0.000244141Z" fill="black"/>
<path d="M48.7756 7.66803V14.1065H50.9396C52.8538 14.1065 53.9781 12.9152 53.9781 10.885C53.9781 8.85935 52.8492 7.66803 50.9396 7.66803H48.7756ZM49.5787 8.39085H50.8861C52.3496 8.39085 53.1572 9.28325 53.1572 10.8939C53.1572 12.4913 52.3451 13.3837 50.8861 13.3837H49.5787V8.39085ZM56.7802 14.1868C58.0607 14.1868 58.9264 13.2632 58.9264 11.7864C58.9264 10.305 58.0607 9.38584 56.7802 9.38584C55.4951 9.38584 54.6296 10.305 54.6296 11.7864C54.6296 13.2632 55.4951 14.1868 56.7802 14.1868ZM56.7802 13.5041C55.9592 13.5041 55.4193 12.8795 55.4193 11.7864C55.4193 10.6932 55.9592 10.0685 56.7802 10.0685C57.6012 10.0685 58.1366 10.6932 58.1366 11.7864C58.1366 12.8795 57.6012 13.5041 56.7802 13.5041ZM65.6146 9.4662H64.8472L63.9191 13.2409H63.9013L62.8483 9.4662H62.0987L61.0501 13.2409H61.0323L60.1042 9.4662H59.3323L60.6307 14.1065H61.4205L62.4646 10.5147H62.4824L63.5309 14.1065H64.3207L65.6146 9.4662ZM66.2527 14.1065H67.0291V11.3759C67.0291 10.5906 67.5065 10.073 68.2382 10.073C68.9521 10.073 69.3043 10.4835 69.3043 11.2331V14.1065H70.0807V11.0947C70.0807 10.0418 69.4918 9.38584 68.4747 9.38584C67.7563 9.38584 67.2611 9.70714 67.0022 10.2069H66.9845V9.4662H66.2527V14.1065ZM71.1115 14.1065H71.888V7.66803H71.1115V14.1065ZM74.8598 14.1868C76.1401 14.1868 77.0058 13.2632 77.0058 11.7864C77.0058 10.305 76.1401 9.38584 74.8598 9.38584C73.5746 9.38584 72.709 10.305 72.709 11.7864C72.709 13.2632 73.5746 14.1868 74.8598 14.1868ZM74.8598 13.5041C74.0388 13.5041 73.4986 12.8795 73.4986 11.7864C73.4986 10.6932 74.0388 10.0685 74.8598 10.0685C75.6808 10.0685 76.2161 10.6932 76.2161 11.7864C76.2161 12.8795 75.6808 13.5041 74.8598 13.5041ZM79.3211 13.5264C78.7635 13.5264 78.3934 13.2364 78.3934 12.7947C78.3934 12.3575 78.7503 12.0808 79.3748 12.0407L80.6153 11.9648V12.344C80.6153 13.0134 80.0529 13.5264 79.3211 13.5264ZM79.1475 14.1868C79.772 14.1868 80.361 13.8388 80.6376 13.3078H80.6558V14.1065H81.3918V10.8985C81.3918 9.97484 80.7046 9.38584 79.6159 9.38584C78.5182 9.38584 77.831 10.0016 77.7773 10.8047H78.5272C78.6255 10.3497 79.0005 10.0685 79.5978 10.0685C80.2404 10.0685 80.6153 10.4076 80.6153 10.9743V11.3625L79.2855 11.4383C78.215 11.5008 77.6038 12.0005 77.6038 12.7947C77.6038 13.6291 78.2241 14.1868 79.1475 14.1868ZM84.1357 14.1868C84.8048 14.1868 85.3359 13.8567 85.6349 13.3212H85.6481V14.1065H86.389V7.66803H85.6126V10.2202H85.5945C85.3185 9.7116 84.7825 9.38584 84.1176 9.38584C82.9488 9.38584 82.1501 10.3318 82.1501 11.7864C82.1501 13.2409 82.9537 14.1868 84.1357 14.1868ZM84.2828 10.0685C85.0815 10.0685 85.6168 10.7512 85.6168 11.7864C85.6168 12.826 85.0815 13.5041 84.2828 13.5041C83.4618 13.5041 82.9446 12.8394 82.9446 11.7864C82.9446 10.7378 83.4618 10.0685 84.2828 10.0685ZM91.235 14.1868C92.5153 14.1868 93.3809 13.2632 93.3809 11.7864C93.3809 10.305 92.5153 9.38584 91.235 9.38584C89.9498 9.38584 89.0842 10.305 89.0842 11.7864C89.0842 13.2632 89.9498 14.1868 91.235 14.1868ZM91.235 13.5041C90.4133 13.5041 89.8738 12.8795 89.8738 11.7864C89.8738 10.6932 90.4133 10.0685 91.235 10.0685C92.0553 10.0685 92.5906 10.6932 92.5906 11.7864C92.5906 12.8795 92.0553 13.5041 91.235 13.5041ZM94.1657 14.1065H94.9422V11.3759C94.9422 10.5906 95.4196 10.073 96.1514 10.073C96.8651 10.073 97.2177 10.4835 97.2177 11.2331V14.1065H97.9942V11.0947C97.9942 10.0418 97.4052 9.38584 96.3884 9.38584C95.6698 9.38584 95.1742 9.70714 94.9157 10.2069H94.8975V9.4662H94.1657V14.1065ZM101.109 8.34625V9.4662H100.417V10.1043H101.109V12.9018C101.109 13.7941 101.439 14.1422 102.291 14.1422C102.474 14.1422 102.688 14.1288 102.782 14.1065V13.4551C102.728 13.464 102.55 13.4774 102.46 13.4774C102.064 13.4774 101.885 13.2855 101.885 12.8617V10.1043H102.786V9.4662H101.885V8.34625H101.109ZM103.656 14.1065H104.433V11.4026C104.433 10.5995 104.91 10.073 105.682 10.073C106.409 10.073 106.779 10.5147 106.779 11.2509V14.1065H107.556V11.1081C107.556 10.073 106.94 9.38584 105.923 9.38584C105.218 9.38584 104.709 9.6893 104.451 10.2069H104.433V7.66803H103.656V14.1065ZM110.403 10.0596C111.135 10.0596 111.621 10.6129 111.639 11.3893H109.118C109.167 10.6173 109.675 10.0596 110.403 10.0596ZM111.621 12.7769C111.492 13.2141 111.059 13.5131 110.47 13.5131C109.635 13.5131 109.114 12.9286 109.114 12.0407V11.996H112.442V11.7016C112.442 10.2961 111.67 9.38584 110.416 9.38584C109.135 9.38584 108.315 10.363 108.315 11.8042C108.315 13.2632 109.122 14.1868 110.452 14.1868C111.464 14.1868 112.25 13.589 112.384 12.7769H111.621Z" fill="white"/>
<path d="M58.3148 34.0442H60.5258L55.6652 20.582H53.4075L48.547 34.0442H50.7206L51.9521 30.4057H57.0832L58.3148 34.0442ZM54.4897 22.821H54.5457L56.5515 28.7265H52.4839L54.4897 22.821ZM67.2612 24.0712C65.8431 24.0712 64.7143 24.7895 64.1358 25.9183H64.0985V24.2297H62.1487V37.2908H64.1638V32.4302H64.2105C64.7702 33.5217 65.8898 34.2121 67.2985 34.2121C69.7615 34.2121 71.3938 32.2436 71.3938 29.1369C71.3938 26.0303 69.7525 24.0712 67.2612 24.0712ZM66.7294 32.5048C65.1807 32.5048 64.1545 31.1801 64.1545 29.1369C64.1545 27.1125 65.1901 25.769 66.7294 25.769C68.3247 25.769 69.3231 27.0845 69.3231 29.1369C69.3231 31.1988 68.3247 32.5048 66.7294 32.5048ZM78.4464 24.0712C77.0288 24.0712 75.8997 24.7895 75.3212 25.9183H75.2843V24.2297H73.3342V37.2908H75.3491V32.4302H75.3958C75.9554 33.5217 77.0755 34.2121 78.484 34.2121C80.9471 34.2121 82.5794 32.2436 82.5794 29.1369C82.5794 26.0303 80.9373 24.0712 78.4464 24.0712ZM77.9146 32.5048C76.366 32.5048 75.34 31.1801 75.34 29.1369C75.34 27.1125 76.3757 25.769 77.9146 25.769C79.51 25.769 80.5087 27.0845 80.5087 29.1369C80.5087 31.1988 79.51 32.5048 77.9146 32.5048ZM88.4283 30.2938C88.5587 32.7287 90.5743 34.2681 93.5594 34.2681C96.7501 34.2681 98.7559 32.6914 98.7559 30.1725C98.7559 28.204 97.608 27.0938 94.8467 26.4408L93.3635 26.077C91.6281 25.6478 90.9193 25.088 90.9193 24.1365C90.9193 22.9423 92.0295 22.1213 93.6528 22.1213C95.276 22.1213 96.3863 22.933 96.5075 24.2764H98.5413C98.4758 21.9534 96.5264 20.3581 93.6806 20.3581C90.8071 20.3581 88.7831 21.9534 88.7831 24.2764C88.7831 26.1515 89.9303 27.3084 92.4024 27.9055L94.1469 28.3253C95.8914 28.7544 96.6288 29.3795 96.6288 30.4244C96.6288 31.6279 95.4063 32.5048 93.7085 32.5048C91.9361 32.5048 90.6391 31.6279 90.4899 30.2938H88.4283ZM101.358 21.9067V24.2297H99.931V25.825H101.358V31.46C101.358 33.3538 102.133 34.1095 104.12 34.1095C104.567 34.1095 105.015 34.0722 105.239 34.0162V32.4209C105.109 32.4489 104.783 32.4675 104.577 32.4675C103.756 32.4675 103.383 32.085 103.383 31.236V25.825H105.249V24.2297H103.383V21.9067H101.358ZM111.266 34.2308C114.074 34.2308 115.921 32.2996 115.921 29.1369C115.921 25.9836 114.065 24.0525 111.266 24.0525C108.467 24.0525 106.61 25.9836 106.61 29.1369C106.61 32.2996 108.458 34.2308 111.266 34.2308ZM111.266 32.5702C109.689 32.5702 108.663 31.32 108.663 29.1369C108.663 26.9632 109.689 25.7131 111.266 25.7131C112.842 25.7131 113.869 26.9632 113.869 29.1369C113.869 31.32 112.852 32.5702 111.266 32.5702ZM117.861 34.0442H119.876V28.1667C119.876 26.7767 120.678 25.909 121.975 25.909C122.367 25.909 122.722 25.9557 122.88 26.021V24.1457C122.731 24.1178 122.479 24.0712 122.19 24.0712C121.033 24.0712 120.156 24.7522 119.83 25.8997H119.783V24.2297H117.861V34.0442ZM128.189 25.6758C129.597 25.6758 130.549 26.73 130.595 28.232H125.688C125.791 26.7486 126.78 25.6758 128.189 25.6758ZM130.586 31.1615C130.316 32.0197 129.466 32.5982 128.319 32.5982C126.705 32.5982 125.679 31.4693 125.679 29.762V29.6408H132.61V28.9503C132.61 25.9743 130.913 24.0525 128.189 24.0525C125.418 24.0525 123.645 26.1049 123.645 29.1836C123.645 32.2809 125.39 34.2308 128.272 34.2308C130.521 34.2308 132.219 32.9527 132.499 31.1615H130.586Z" fill="white"/>
<path d="M36.8293 29.2573C36.3818 30.2903 35.8522 31.2412 35.2386 32.1154C34.4022 33.3072 33.7173 34.1322 33.1895 34.5903C32.3714 35.3422 31.4947 35.7273 30.5561 35.7492C29.8821 35.7492 29.0694 35.5576 28.1234 35.1688C27.1743 34.782 26.3021 34.5903 25.5045 34.5903C24.6681 34.5903 23.771 34.782 22.8115 35.1688C21.8505 35.5576 21.0764 35.7602 20.4844 35.7802C19.5842 35.8186 18.687 35.4225 17.7914 34.5903C17.2198 34.092 16.5048 33.2379 15.6483 32.0278C14.7292 30.7357 13.9737 29.2372 13.3819 27.5289C12.7479 25.6837 12.4302 23.8969 12.4302 22.167C12.4302 20.1855 12.8586 18.4765 13.7168 17.0443C14.3912 15.8939 15.2885 14.9865 16.4114 14.3203C17.5345 13.6542 18.7479 13.3147 20.0545 13.2929C20.7695 13.2929 21.7071 13.514 22.8723 13.9484C24.0342 14.3842 24.7802 14.6052 25.1073 14.6052C25.3519 14.6052 26.1806 14.3468 27.5856 13.8315C28.9142 13.3537 30.0355 13.1559 30.9542 13.2338C33.4434 13.4346 35.3135 14.4153 36.5572 16.1819C34.331 17.53 33.2297 19.4181 33.2516 21.8402C33.2717 23.7268 33.9565 25.2968 35.3025 26.5433C35.9125 27.1219 36.5937 27.569 37.3516 27.8866C37.1873 28.363 37.0138 28.8193 36.8293 29.2573ZM31.1203 6.80649C31.1203 8.28524 30.5797 9.66593 29.5022 10.9439C28.202 12.4631 26.6291 13.341 24.9236 13.2025C24.9019 13.025 24.8892 12.8384 24.8892 12.6421C24.8892 11.2225 25.5076 9.70329 26.6058 8.46116C27.154 7.83222 27.8513 7.30928 28.6968 6.89209C29.5406 6.48114 30.3387 6.25388 31.0893 6.21497C31.1112 6.41265 31.1203 6.61034 31.1203 6.80647V6.80649Z" fill="white"/>
</svg>
