<?xml version="1.0" encoding="utf-8"?><svg width="157" height="44" viewBox="0 0 157 44" fill="none" xmlns="http://www.w3.org/2000/svg">
<path d="M150.323 -0.000244141H6.25554C2.82303 -0.000244141 0.0404358 2.78236 0.0404358 6.21487V37.2904C0.0404358 40.7229 2.82303 43.5055 6.25554 43.5055H150.323C153.756 43.5055 156.538 40.7229 156.538 37.2904V6.21487C156.538 2.78236 153.756 -0.000244141 150.323 -0.000244141Z" fill="black"/>
<path d="M49.9556 27.1701C49.9556 26.0619 50.2107 25.0678 50.7216 24.1878C51.2429 23.3078 51.9441 22.6233 52.8236 22.1345C53.7151 21.6347 54.6873 21.3848 55.7411 21.3848C56.9469 21.3848 58.0174 21.6836 58.9514 22.2811C59.8964 22.8678 60.5809 23.7044 61.0046 24.7908H58.7722C58.4788 24.2258 58.0718 23.8022 57.5498 23.5197C57.0284 23.2263 56.4256 23.0796 55.7411 23.0796C54.9912 23.0796 54.3235 23.2481 53.7367 23.5848C53.1498 23.9216 52.6884 24.3997 52.3511 25.019C52.0256 25.6382 51.8625 26.3553 51.8625 27.1701C51.8625 27.985 52.0256 28.7075 52.3511 29.3376C52.6884 29.9568 53.1498 30.4349 53.7367 30.7717C54.3235 31.1085 54.9912 31.2769 55.7411 31.2769C56.7517 31.2769 57.5714 30.9944 58.2021 30.4295C58.8426 29.8536 59.2287 29.0769 59.3591 28.099H55.1055V26.6486H61.3468V28.099C61.2277 28.9791 60.9126 29.7885 60.4017 30.5272C59.902 31.266 59.2448 31.8581 58.43 32.3036C57.6257 32.7381 56.7294 32.9555 55.7411 32.9555C54.6762 32.9555 53.7039 32.711 52.8236 32.2221C51.9441 31.7223 51.2429 31.0325 50.7216 30.1524C50.2107 29.2724 49.9556 28.2783 49.9556 27.1701ZM66.7483 33.0043C65.9008 33.0043 65.1348 32.8143 64.4504 32.4339C63.766 32.0429 63.2286 31.4996 62.8369 30.8043C62.4459 30.098 62.2508 29.2832 62.2508 28.3597C62.2508 27.4471 62.4515 26.6378 62.8537 25.9316C63.2558 25.2254 63.8043 24.6821 64.4992 24.3019C65.1948 23.9216 65.9719 23.7315 66.8298 23.7315C67.6885 23.7315 68.4649 23.9216 69.1605 24.3019C69.8554 24.6821 70.4046 25.2254 70.806 25.9316C71.2082 26.6378 71.4096 27.4471 71.4096 28.3597C71.4096 29.2724 71.2026 30.0818 70.79 30.788C70.3774 31.4942 69.8121 32.0429 69.095 32.4339C68.3889 32.8143 67.607 33.0043 66.7483 33.0043ZM66.7483 31.4398C67.2264 31.4398 67.6718 31.3203 68.0851 31.0813C68.5081 30.8423 68.851 30.4946 69.1117 30.0383C69.3724 29.5712 69.5027 29.0116 69.5027 28.3597C69.5027 27.7079 69.378 27.1538 69.1277 26.6975C68.8782 26.2304 68.5465 25.8827 68.1339 25.6545C67.7206 25.4155 67.2752 25.296 66.7971 25.296C66.319 25.296 65.8792 25.4155 65.477 25.6545C65.0756 25.8827 64.7494 26.2304 64.4992 26.6975C64.2601 27.1538 64.141 27.7079 64.141 28.3597C64.141 29.0116 64.2553 29.5712 64.4832 30.0383C64.7222 30.5055 65.0373 30.8586 65.4282 31.0976C65.8304 31.3257 66.2702 31.4398 66.7483 31.4398ZM76.8146 33.0043C75.9671 33.0043 75.2018 32.8143 74.5167 32.4339C73.8323 32.0429 73.2949 31.4996 72.9039 30.8043C72.5122 30.098 72.3171 29.2832 72.3171 28.3597C72.3171 27.4471 72.5178 26.6378 72.9199 25.9316C73.3221 25.2254 73.8706 24.6821 74.5661 24.3019C75.261 23.9216 76.0382 23.7315 76.8961 23.7315C77.7548 23.7315 78.5312 23.9216 79.2268 24.3019C79.9223 24.6821 80.4708 25.2254 80.873 25.9316C81.2744 26.6378 81.4759 27.4471 81.4759 28.3597C81.4759 29.2724 81.2696 30.0818 80.8563 30.788C80.4436 31.4942 79.8784 32.0429 79.1612 32.4339C78.4552 32.8143 77.6732 33.0043 76.8146 33.0043ZM76.8146 31.4398C77.2927 31.4398 77.738 31.3203 78.1513 31.0813C78.5751 30.8423 78.9173 30.4946 79.178 30.0383C79.4386 29.5712 79.569 29.0116 79.569 28.3597C79.569 27.7079 79.4442 27.1538 79.194 26.6975C78.9445 26.2304 78.6127 25.8827 78.2001 25.6545C77.7875 25.4155 77.3415 25.296 76.864 25.296C76.3859 25.296 75.9455 25.4155 75.544 25.6545C75.1419 25.8827 74.8157 26.2304 74.5661 26.6975C74.3271 27.1538 74.2072 27.7079 74.2072 28.3597C74.2072 29.0116 74.3215 29.5712 74.5494 30.0383C74.7885 30.5055 75.1035 30.8586 75.4945 31.0976C75.8967 31.3257 76.3371 31.4398 76.8146 31.4398ZM86.6041 23.7315C87.2997 23.7315 87.913 23.8728 88.4455 24.1552C88.9891 24.4268 89.4129 24.7691 89.7168 25.1819V23.8782H91.5909V33.0043C91.5909 33.83 91.4174 34.5634 91.0696 35.2044C90.7218 35.8563 90.2165 36.3669 89.5537 36.7363C88.902 37.1057 88.12 37.2904 87.207 37.2904C85.9901 37.2904 84.9802 37.0025 84.1759 36.4266C83.3723 35.8617 82.9158 35.0903 82.8071 34.1125H84.6484C84.7899 34.5797 85.0889 34.9545 85.5447 35.237C86.0124 35.5303 86.5665 35.677 87.207 35.677C87.9569 35.677 88.5598 35.4489 89.0163 34.9926C89.4833 34.5362 89.7168 33.8735 89.7168 33.0043V31.5051C89.4017 31.9288 88.9724 32.2873 88.4295 32.5806C87.897 32.8631 87.2885 33.0043 86.6041 33.0043C85.8221 33.0043 85.105 32.8088 84.4533 32.4177C83.8121 32.0157 83.3012 31.4616 82.9214 30.7554C82.552 30.0383 82.3673 29.2289 82.3673 28.3272C82.3673 27.4254 82.552 26.6269 82.9214 25.9316C83.3012 25.2362 83.8121 24.6984 84.4533 24.3182C85.105 23.927 85.8221 23.7315 86.6041 23.7315ZM89.7168 28.3597C89.7168 27.7405 89.5864 27.2027 89.3258 26.7464C89.0756 26.2901 88.7445 25.9424 88.3319 25.7034C87.9186 25.4644 87.4732 25.3449 86.9951 25.3449C86.517 25.3449 86.0717 25.4644 85.659 25.7034C85.2464 25.9316 84.9091 26.2738 84.6484 26.7301C84.3989 27.1755 84.2735 27.7079 84.2735 28.3272C84.2735 28.9465 84.3989 29.4897 84.6484 29.9568C84.9091 30.424 85.2464 30.7825 85.659 31.0325C86.0828 31.2715 86.5282 31.391 86.9951 31.391C87.4732 31.391 87.9186 31.2715 88.3319 31.0325C88.7445 30.7934 89.0756 30.4458 89.3258 29.9895C89.5864 29.5223 89.7168 28.9791 89.7168 28.3597ZM95.5629 20.7981V32.8577H93.7048V20.7981H95.5629ZM105.906 28.1153C105.906 28.4304 105.884 28.7238 105.841 28.9954H98.9641C99.0185 29.745 99.284 30.3425 99.7621 30.788C100.24 31.2225 100.833 31.4398 101.539 31.4398C102.538 31.4398 103.244 31.0216 103.657 30.185H105.662C105.39 31.0107 104.896 31.6898 104.179 32.2221C103.472 32.7436 102.593 33.0043 101.539 33.0043C100.681 33.0043 99.9092 32.8143 99.2248 32.4339C98.5508 32.0429 98.0183 31.4996 97.6273 30.8043C97.2468 30.098 97.0572 29.2832 97.0572 28.3597C97.0572 27.4363 97.2419 26.6269 97.6113 25.9316C97.9918 25.2254 98.518 24.6821 99.192 24.3019C99.8764 23.9216 100.658 23.7315 101.539 23.7315C102.386 23.7315 103.141 23.9162 103.804 24.2856C104.467 24.655 104.983 25.1711 105.352 25.8338C105.721 26.4965 105.906 27.2571 105.906 28.1153ZM103.967 27.659C103.956 26.9311 103.712 26.3553 103.234 25.9316C102.767 25.5078 102.174 25.296 101.457 25.296C100.805 25.296 100.246 25.5078 99.7789 25.9316C99.3223 26.3553 99.0561 26.9311 98.9801 27.659H103.967ZM119.889 24.9049C119.889 25.4807 119.752 26.0239 119.481 26.5345C119.21 27.0452 118.775 27.4634 118.177 27.7894C117.58 28.1044 116.814 28.262 115.879 28.262H113.826V32.8577H111.969V21.5314H115.879C116.749 21.5314 117.482 21.6836 118.08 21.9877C118.688 22.2811 119.139 22.6831 119.433 23.1937C119.736 23.7044 119.889 24.2748 119.889 24.9049ZM115.879 26.8116C116.585 26.8116 117.113 26.6432 117.461 26.3064C117.808 25.9696 117.982 25.5024 117.982 24.9049C117.982 24.2964 117.808 23.8238 117.461 23.4871C117.113 23.1503 116.585 22.9819 115.879 22.9819H113.826V26.8116H115.879ZM123.192 20.7981V32.8577H121.335V20.7981H123.192ZM124.686 28.3272C124.686 27.4254 124.871 26.6269 125.24 25.9316C125.62 25.2362 126.131 24.6984 126.772 24.3182C127.424 23.927 128.141 23.7315 128.924 23.7315C129.629 23.7315 130.244 23.8728 130.765 24.1552C131.297 24.4268 131.721 24.7691 132.036 25.1819V23.8782H133.911V32.8577H132.036V31.5213C131.721 31.9451 131.291 32.2982 130.748 32.5806C130.206 32.8631 129.586 33.0043 128.891 33.0043C128.12 33.0043 127.413 32.8088 126.772 32.4177C126.131 32.0157 125.62 31.4616 125.24 30.7554C124.871 30.0383 124.686 29.2289 124.686 28.3272ZM132.036 28.3597C132.036 27.7405 131.906 27.2027 131.645 26.7464C131.395 26.2901 131.064 25.9424 130.651 25.7034C130.238 25.4644 129.792 25.3449 129.315 25.3449C128.837 25.3449 128.391 25.4644 127.978 25.7034C127.565 25.9316 127.229 26.2738 126.968 26.7301C126.718 27.1755 126.593 27.7079 126.593 28.3272C126.593 28.9465 126.718 29.4897 126.968 29.9568C127.229 30.424 127.565 30.7825 127.978 31.0325C128.402 31.2715 128.847 31.391 129.315 31.391C129.792 31.391 130.238 31.2715 130.651 31.0325C131.064 30.7934 131.395 30.4458 131.645 29.9895C131.906 29.5223 132.036 28.9791 132.036 28.3597ZM137.035 23.8782L139.561 30.7228L142.185 23.8782H144.108L138.6 37.0785H136.677L138.502 32.711L134.965 23.8782H137.035Z" fill="white"/>
<path d="M49.7214 9.42868C49.7214 8.84539 49.8532 8.32218 50.1159 7.85905C50.385 7.39013 50.7481 7.02708 51.2053 6.76973C51.6632 6.5067 52.1692 6.37518 52.7233 6.37518C53.3582 6.37518 53.9186 6.53243 54.405 6.84693C54.8964 7.16146 55.254 7.60459 55.477 8.17638H54.5417C54.3758 7.82762 54.136 7.55887 53.8217 7.37013C53.5067 7.17574 53.1408 7.07852 52.7233 7.07852C52.3065 7.07852 51.9287 7.17574 51.5914 7.37013C51.2597 7.55887 50.9969 7.83333 50.8025 8.19352C50.6136 8.54807 50.5195 8.95977 50.5195 9.42868C50.5195 9.89753 50.6136 10.3092 50.8025 10.6638C50.9969 11.0183 51.2597 11.2928 51.5914 11.4872C51.9287 11.6759 52.3065 11.7703 52.7233 11.7703C53.3122 11.7703 53.7959 11.5958 54.173 11.2471C54.5507 10.8925 54.7682 10.415 54.8253 9.81466H52.4403V9.19708H55.6568V9.79752C55.6115 10.2893 55.4568 10.741 55.194 11.1527C54.9306 11.5587 54.5849 11.8818 54.1562 12.1219C53.7269 12.3564 53.2495 12.4736 52.7233 12.4736C52.1692 12.4736 51.6632 12.3449 51.2053 12.0876C50.7481 11.8246 50.385 11.4615 50.1159 10.9983C49.8532 10.5351 49.7214 10.0119 49.7214 9.42868ZM57.8983 7.0528V9.10271H60.0769V9.70315H57.8983V11.8046H60.3341V12.4221H57.1176V6.43523H60.3341V7.0528H57.8983ZM65.6241 6.4438V7.0528H63.9939V12.4221H63.2133V7.0528H61.5754V6.4438H65.6241ZM70.7774 6.4438V12.4221H69.9968V6.4438H70.7774ZM76.2166 6.4438V7.0528H74.5864V12.4221H73.8065V7.0528H72.1679V6.4438H76.2166ZM83.2998 12.4822C82.745 12.4822 82.239 12.3535 81.7818 12.0962C81.3246 11.8331 80.9615 11.47 80.6925 11.0069C80.4297 10.538 80.298 10.0119 80.298 9.42868C80.298 8.84539 80.4297 8.32218 80.6925 7.85905C80.9615 7.39013 81.3246 7.02708 81.7818 6.76973C82.239 6.5067 82.745 6.37518 83.2998 6.37518C83.8602 6.37518 84.369 6.5067 84.8269 6.76973C85.2841 7.02708 85.6444 7.38727 85.9072 7.85048C86.1706 8.31361 86.3023 8.83975 86.3023 9.42868C86.3023 10.0176 86.1706 10.5437 85.9072 11.0069C85.6444 11.47 85.2841 11.8331 84.8269 12.0962C84.369 12.3535 83.8602 12.4822 83.2998 12.4822ZM83.2998 11.7788C83.7173 11.7788 84.0923 11.6816 84.4233 11.4872C84.7607 11.2928 85.0241 11.0183 85.213 10.6638C85.4074 10.3092 85.5043 9.89753 85.5043 9.42868C85.5043 8.95977 85.4074 8.54807 85.213 8.19352C85.0241 7.83333 84.7607 7.55887 84.4233 7.37013C84.0923 7.17574 83.7173 7.07852 83.2998 7.07852C82.8823 7.07852 82.5053 7.17574 82.1679 7.37013C81.8362 7.55887 81.5734 7.83333 81.379 8.19352C81.1901 8.54807 81.096 8.95977 81.096 9.42868C81.096 9.89753 81.1901 10.3092 81.379 10.6638C81.5734 11.0183 81.8362 11.2928 82.1679 11.4872C82.5053 11.6816 82.8823 11.7788 83.2998 11.7788ZM92.4621 12.4221H91.6808L88.5417 7.66174V12.4221H87.7611V6.43523H88.5417L91.6808 11.187V6.43523H92.4621V12.4221Z" fill="white"/>
<mask id="mask0_113_850" style="mask-type:alpha" maskUnits="userSpaceOnUse" x="12" y="6" width="26" height="30">
<path d="M12.4708 7.93287C12.4708 6.61674 13.8919 5.79086 15.0349 6.44231L36.5607 18.7045C37.6898 19.3474 37.7218 20.9628 36.6199 21.6504L15.0942 35.0803C13.9518 35.7933 12.4708 34.9718 12.4708 33.6249V7.93287Z" fill="#C4C4C4"/>
</mask>
<g mask="url(#mask0_113_850)">
<path fill-rule="evenodd" clip-rule="evenodd" d="M12.7098 34.5896L25.0273 22.3074L29.3687 26.6362L14.7262 34.7546C14.1693 35.0634 13.4877 35.0587 12.9343 34.7417L12.7098 34.5896ZM23.7846 21.0689L12.0422 32.7779V9.35979L23.7846 21.0689ZM31.123 16.2301L36.8604 19.4103C37.4235 19.7238 37.7734 20.3109 37.7734 20.9472C37.7734 21.5835 37.4235 22.1706 36.8604 22.4841L30.9662 25.7508L26.2707 21.0689L31.123 16.2301ZM12.5802 7.41819C12.6855 7.31643 12.8032 7.22757 12.9343 7.15271C13.4877 6.83573 14.1693 6.83104 14.7262 7.13982L29.5255 15.3447L25.0273 19.8302L12.5802 7.41819Z" fill="white"/>
</g>
</svg>
